<?xml version="1.0" encoding="UTF-8" standalone="no"?>
<!-- Created with Inkscape (http://www.inkscape.org/) -->

<svg
   xmlns:dc="http://purl.org/dc/elements/1.1/"
   xmlns:cc="http://creativecommons.org/ns#"
   xmlns:rdf="http://www.w3.org/1999/02/22-rdf-syntax-ns#"
   xmlns:svg="http://www.w3.org/2000/svg"
   xmlns="http://www.w3.org/2000/svg"
   xmlns:sodipodi="http://sodipodi.sourceforge.net/DTD/sodipodi-0.dtd"
   xmlns:inkscape="http://www.inkscape.org/namespaces/inkscape"
   width="100"
   height="100"
   id="svg2"
   version="1.1"
   inkscape:version="0.48.5 r10040"
   sodipodi:docname="logo.svg"
   inkscape:export-filename="/home/user/androidsoft-coloring/images/logo.png"
   inkscape:export-xdpi="90"
   inkscape:export-ydpi="90">
  <defs
     id="defs4" />
  <sodipodi:namedview
     id="base"
     pagecolor="#ffffff"
     bordercolor="#666666"
     borderopacity="1.0"
     inkscape:pageopacity="0.0"
     inkscape:pageshadow="2"
     inkscape:zoom="4"
     inkscape:cx="134.91224"
     inkscape:cy="44.26609"
     inkscape:document-units="px"
     inkscape:current-layer="layer1"
     showgrid="false"
     fit-margin-top="0"
     fit-margin-left="0"
     fit-margin-right="0"
     fit-margin-bottom="0"
     inkscape:object-nodes="true"
     inkscape:snap-midpoints="true"
     inkscape:snap-object-midpoints="true"
     inkscape:window-width="1920"
     inkscape:window-height="1036"
     inkscape:window-x="4"
     inkscape:window-y="44"
     inkscape:window-maximized="0"
     inkscape:snap-smooth-nodes="true"
     inkscape:object-paths="true">
    <inkscape:grid
       type="xygrid"
       id="grid3952"
       empspacing="5"
       visible="true"
       enabled="true"
       snapvisiblegridlinesonly="true"
       originx="-1.4374955px"
       originy="-0.31249632px" />
  </sodipodi:namedview>
  <metadata
     id="metadata7">
    <rdf:RDF>
      <cc:Work
         rdf:about="">
        <dc:format>image/svg+xml</dc:format>
        <dc:type
           rdf:resource="http://purl.org/dc/dcmitype/StillImage" />
        <dc:title />
      </cc:Work>
    </rdf:RDF>
  </metadata>
  <g
     inkscape:label="Layer 1"
     inkscape:groupmode="layer"
     id="layer1"
     transform="translate(-174.29463,-619.19252)">
    <path
       style="fill:#f4d7ee;fill-opacity:1;stroke:#000000;stroke-width:5.00000048;stroke-linecap:butt;stroke-linejoin:round;stroke-miterlimit:4;stroke-opacity:1;stroke-dasharray:none"
       d="m 179.9031,622.69035 -2.11095,3.97715 0.18356,89.02719 36.31452,-9.20866 c 1.59281,2.63543 4.62114,4.16072 9.97348,4.16072 5.35235,0 8.41128,-1.52529 10.00409,-4.16072 l 36.31451,9.20866 0.18357,-89.02719 -2.11096,-3.97715 -44.39121,5.20089 -44.36061,-5.20089 z"
       id="path2987"
       inkscape:connector-curvature="0" />
    <path
       sodipodi:type="star"
       style="fill:#ffff00;fill-opacity:1;stroke:#000000;stroke-width:2.33063912;stroke-miterlimit:4;stroke-opacity:1;stroke-dasharray:none"
       id="path3759"
       sodipodi:sides="5"
       sodipodi:cx="60.609154"
       sodipodi:cy="24.491096"
       sodipodi:r1="14.73079"
       sodipodi:r2="4.1447506"
       sodipodi:arg1="0.78539816"
       sodipodi:arg2="1.4137167"
       inkscape:flatsided="false"
       inkscape:rounded="0"
       inkscape:randomized="0"
       d="m 71.025395,34.907338 -9.767859,-6.32252 -7.336021,9.031509 2.994639,-11.243553 -10.85643,-4.186081 11.618649,-0.626378 0.626377,-11.6186482 4.186081,10.8564302 11.243553,-2.994639 -9.031508,7.33602 z"
       transform="matrix(1.2872003,0,0,1.2872006,170.42533,620.69873)"
       inkscape:transform-center-x="0.9166171"
       inkscape:transform-center-y="-0.91662397" />
    <path
       style="fill:none;stroke:#000000;stroke-width:3;stroke-linecap:butt;stroke-linejoin:miter;stroke-miterlimit:4;stroke-opacity:1;stroke-dasharray:none"
       d="m 224.26371,627.89124 0,59.5484"
       id="path3950"
       inkscape:connector-curvature="0"
       sodipodi:nodetypes="cc" />
    <g
       transform="matrix(-0.72072815,-0.66255427,-0.66255408,0.72072835,920.06118,379.68154)"
       id="g3954"
       style="stroke:#f4d7ee;stroke-width:9.19312;stroke-miterlimit:4;stroke-opacity:1;stroke-dasharray:none">
      <path
         transform="translate(172.85713,619.50502)"
         style="fill:#ffff00;fill-opacity:1;stroke:#f4d7ee;stroke-width:9.19312;stroke-linejoin:round;stroke-miterlimit:4;stroke-opacity:1;stroke-dasharray:none"
         d="m 124.24876,73.988571 5.55584,-13.573925 5.80837,13.573925 0,29.660639 -11.36421,-0.6022 z"
         id="path3956"
         inkscape:connector-curvature="0"
         sodipodi:nodetypes="cccccc" />
      <path
         style="fill:none;stroke:#f4d7ee;stroke-width:9.19312;stroke-linecap:butt;stroke-linejoin:miter;stroke-miterlimit:4;stroke-opacity:1;stroke-dasharray:none"
         d="m 129.93086,119.44543 0,-45.961934"
         id="path3958"
         inkscape:connector-curvature="0"
         transform="translate(172.85713,619.50502)" />
      <path
         style="fill:none;stroke:#f4d7ee;stroke-width:9.19312;stroke-linecap:butt;stroke-linejoin:miter;stroke-miterlimit:4;stroke-opacity:1;stroke-dasharray:none"
         d="m 124.24876,73.988571 11.36421,0"
         id="path3960"
         inkscape:connector-curvature="0"
         transform="translate(172.85713,619.50502)" />
    </g>
    <g
       id="g3782"
       transform="matrix(-0.72072815,-0.66255427,-0.66255408,0.72072835,920.06118,379.68154)">
      <path
         sodipodi:nodetypes="cccccc"
         inkscape:connector-curvature="0"
         id="rect3775"
         d="m 124.24876,73.988571 5.55584,-13.573925 5.80837,13.573925 0,45.456859 -11.36421,0 z"
         style="fill:#ffff00;fill-opacity:1;stroke:#000000;stroke-width:3.06437349;stroke-miterlimit:4;stroke-opacity:1"
         transform="translate(172.85713,619.50502)" />
      <path
         transform="translate(172.85713,619.50502)"
         inkscape:connector-curvature="0"
         id="path3778"
         d="m 129.93086,119.44543 0,-45.961934"
         style="fill:none;stroke:#000000;stroke-width:3.06437349;stroke-linecap:butt;stroke-linejoin:miter;stroke-miterlimit:4;stroke-opacity:1;stroke-dasharray:none" />
      <path
         transform="translate(172.85713,619.50502)"
         inkscape:connector-curvature="0"
         id="path3780"
         d="m 124.24876,73.988571 11.36421,0"
         style="fill:none;stroke:#000000;stroke-width:3.06437349;stroke-linecap:butt;stroke-linejoin:miter;stroke-miterlimit:4;stroke-opacity:1;stroke-dasharray:none" />
    </g>
    <path
       style="fill:#00ff00;fill-opacity:1;stroke:#000000;stroke-width:3;stroke-linecap:round;stroke-linejoin:round;stroke-miterlimit:4;stroke-opacity:1;stroke-dasharray:none;stroke-dashoffset:0"
       id="path3787"
       d="m 194.07168,670.90273 c 0.7044,0.62447 1.5045,1.11286 2.29534,1.61548 0.79434,0.63798 1.66312,1.16763 2.4965,1.75145 0.80501,0.53855 1.50882,1.20016 2.21214,1.86078 0.59509,0.56723 1.04386,1.25116 1.47048,1.94743 0.36708,0.58012 0.71425,1.17359 1.12431,1.72491 0.49111,0.70736 0.75056,1.51918 1.04377,2.31813 0.34496,0.71449 0.55578,1.46748 0.73847,2.2349 0.16565,0.69253 0.2473,1.40268 0.29259,2.11236 0.10503,0.63715 0.18007,1.27636 0.2293,1.92012 0.0324,0.62448 0.0471,1.25102 0.0402,1.87646 0.0507,0.70254 -0.0966,1.37777 -0.26362,2.05326 -0.14321,0.61095 -0.3383,1.20399 -0.41934,1.829 -0.0423,0.7024 -0.11544,1.40495 -0.25009,2.09616 -0.14119,0.74184 -0.38233,1.45458 -0.58707,2.17964 -0.15367,0.50204 -0.0838,0.25221 -0.21016,0.74925 0,0 -11.37329,5.48322 -11.37329,5.48322 l 0,0 c 0.10771,-0.5487 0.0508,-0.27416 0.17057,-0.82357 0.11377,-0.3694 0.18613,-0.75437 0.31207,-1.11943 0.11076,-0.32111 0.26212,-0.62404 0.26827,-0.97485 0.17313,-0.63704 0.32648,-1.28304 0.3529,-1.94546 0.0307,-0.66436 0.0386,-1.35142 0.31185,-1.97091 0.12665,-0.60571 0.40976,-1.17728 0.39546,-1.80076 -0.007,-0.60536 0.006,-1.21089 -0.0131,-1.81617 -0.0176,-0.61855 -0.0643,-1.23617 -0.17483,-1.84591 -0.11678,-0.66476 -0.0581,-1.34874 -0.21223,-2.01105 -0.15535,-0.70543 -0.32209,-1.41387 -0.61062,-2.07893 -0.29493,-0.68089 -0.46816,-1.42695 -0.94253,-2.01683 -0.41993,-0.58735 -0.76915,-1.21704 -1.14413,-1.83332 -0.36366,-0.60025 -0.80149,-1.15787 -1.27699,-1.67341 -0.64879,-0.61976 -1.32869,-1.2081 -2.06035,-1.72898 -0.83546,-0.57049 -1.70111,-1.09599 -2.5192,-1.69202 -0.78599,-0.51984 -1.52451,-1.1181 -2.36784,-1.54391 0,0 10.67126,-6.87704 10.67126,-6.87704 z"
       inkscape:connector-curvature="0" />
    <path
       style="fill:#00ff00;fill-opacity:1;stroke:#000000;stroke-width:3;stroke-linecap:round;stroke-linejoin:round;stroke-miterlimit:4;stroke-opacity:1;stroke-dasharray:none;stroke-dashoffset:0"
       id="path3791"
       d="m 204.28922,651.91943 c 0.33714,1.26003 0.68405,2.51814 1.03877,3.77352 0.33556,1.11113 0.80787,2.17241 1.20294,3.26139 0.40211,0.92964 0.61824,1.9074 0.80462,2.89682 0.16785,0.78956 0.30563,1.58733 0.36413,2.3929 0.1184,0.85034 0.19096,1.70436 0.22059,2.56204 0.0225,0.79932 0.0611,1.59886 0.0627,2.39862 0.009,0.7007 -0.008,1.40069 0.002,2.10151 -9.8e-4,0.70861 0.0192,1.41473 -0.0273,2.12211 -0.14926,0.78175 -0.31002,1.56035 -0.39021,2.35275 -0.053,0.60515 -0.0684,1.21187 -0.0677,1.81904 -0.008,0.6185 -0.004,1.23713 -0.004,1.8557 -0.0112,0.64587 9.7e-4,1.28405 0.0665,1.92645 0.0811,0.81451 0.2266,1.62011 0.29488,2.43585 0.0302,0.97075 0.0805,1.94042 0.11007,2.91116 0.0258,0.66369 0.0217,1.32784 0.0298,1.99189 -0.004,0.66498 0.004,1.32871 -0.0252,1.99318 -0.12357,0.73824 -0.32814,1.45978 -0.5394,2.17707 -0.17598,0.72949 -0.45096,1.42091 -0.76098,2.1011 -0.35847,0.65924 -0.73855,1.30707 -1.15011,1.93688 -0.33125,0.54512 -0.60477,1.12313 -0.90796,1.68427 0,0 -11.56245,5.10032 -11.56245,5.10032 l 0,0 c 0.37598,-0.5202 0.68333,-1.08214 0.93925,-1.67108 0.19444,-0.35548 0.41979,-0.66814 0.63725,-1.00667 0.46809,-0.72867 -0.14853,0.1614 0.29767,-0.62254 0.0498,-0.0875 0.12375,-0.15859 0.18564,-0.23787 0.37592,-0.58164 0.69548,-1.19104 0.91235,-1.85087 0.1756,-0.69282 0.39527,-1.36883 0.57712,-2.05837 0.22213,-0.55144 0.0444,-1.20388 0.0955,-1.7891 0.0105,-0.67036 0.0105,-1.34074 0.0297,-2.01088 0.0162,-0.94401 0.0423,-1.89176 -0.0447,-2.8331 -0.0704,-0.80187 -0.20018,-1.59094 -0.31772,-2.38525 -0.0846,-0.67867 -0.21563,-1.34901 -0.15948,-2.03675 -9.8e-4,-0.61886 -0.003,-1.23777 -0.009,-1.85659 0.005,-0.64629 -0.003,-1.29373 0.0501,-1.93832 0.0727,-0.81699 0.17819,-1.62791 0.36917,-2.42699 0.18889,-0.61778 0.0476,-1.29685 0.092,-1.9368 0.0105,-0.70136 -0.003,-1.4019 0.005,-2.10313 3.2e-4,-0.79492 0.0349,-1.58976 0.0105,-2.38478 -0.032,-0.81567 -0.0666,-1.63364 -0.20747,-2.43933 -0.13904,-0.77916 -0.0926,-1.58295 -0.27296,-2.35928 -0.17465,-0.93585 -0.30691,-1.88122 -0.73165,-2.74796 -0.32829,-1.13062 -0.77132,-2.22538 -1.10818,-3.35386 -0.37531,-1.20838 -0.62124,-2.46466 -1.18053,-3.60937 0,0 11.06984,-6.13568 11.06984,-6.13568 z"
       inkscape:connector-curvature="0" />
    <path
       style="fill:#00ff00;fill-opacity:1;stroke:#000000;stroke-width:3;stroke-linecap:round;stroke-linejoin:round;stroke-miterlimit:4;stroke-opacity:1;stroke-dasharray:none;stroke-dashoffset:0"
       id="path3789"
       d="m 218.65768,668.16342 c -0.57893,0.73738 -1.10473,1.51527 -1.66284,2.2691 -0.39969,0.78858 -0.8929,1.51257 -1.41173,2.22534 -0.5479,0.72039 -1.10873,1.4296 -1.58707,2.19838 -0.39829,0.6279 -0.82753,1.23762 -1.27616,1.83085 -0.4712,0.5134 -0.82609,1.11363 -1.2432,1.66771 -0.36401,0.60253 -0.83782,1.12586 -1.22059,1.71399 -0.40362,0.53563 -0.69924,1.1303 -1.03165,1.70916 -0.38778,0.48439 -0.68953,1.01535 -0.92848,1.58591 -0.3169,0.5581 -0.5005,1.16552 -0.65499,1.7841 -0.19917,0.64643 -0.4752,1.26513 -0.67016,1.91221 -0.17061,0.59069 -0.17572,1.20588 -0.28887,1.80722 -0.0986,0.59074 -0.14364,1.1885 -0.16038,1.78663 -0.0205,0.66343 -0.13306,1.32243 -0.20845,1.98228 -0.13505,0.65151 -0.4105,1.25779 -0.58483,1.89695 -0.22327,0.54946 -0.33235,1.12168 -0.40931,1.70638 -0.0112,0.63422 -0.0844,1.25777 -0.1655,1.88599 -0.0105,0.0949 -0.0214,0.1897 -0.0319,0.28453 0,0 -11.35833,5.64558 -11.35833,5.64558 l 0,0 c 0.009,-0.10314 0.0183,-0.20632 0.0273,-0.30949 0.0678,-0.61484 0.2109,-1.21478 0.19461,-1.83458 0.0139,-0.66836 0.0725,-1.35129 0.27731,-1.99004 0.23719,-0.59706 0.34956,-1.23611 0.62017,-1.82364 0.0393,-0.0748 0.0957,-0.14259 0.11783,-0.22395 0.0273,-0.1 0.0173,-0.2064 0.0278,-0.30944 0.0401,-0.39551 0.0813,-0.79556 0.18381,-1.1803 0.0113,-0.64486 0.0112,-1.29064 0.0946,-1.93156 0.034,-0.30137 0.1226,-0.58674 0.16252,-0.88417 0.0455,-0.33828 -0.005,-0.68875 0.0814,-1.0234 0.13374,-0.70869 0.36214,-1.37184 0.64191,-2.03537 0.28615,-0.59644 0.27254,-1.28894 0.55455,-1.89295 0.31572,-0.58595 0.48171,-1.24658 0.87418,-1.79262 0.45506,-0.51969 0.64399,-1.12314 1.05186,-1.67062 0.19362,-0.29901 0.34462,-0.62983 0.55802,-0.91524 0.20996,-0.28081 0.47627,-0.52189 0.65237,-0.82942 0.37959,-0.60603 0.81728,-1.17489 1.21204,-1.77219 0.4863,-0.54434 0.89202,-1.13975 1.34368,-1.71163 0.25262,-0.36819 0.45356,-0.77046 0.70381,-1.13735 0.27132,-0.39776 0.63877,-0.7328 0.87775,-1.15566 0.52432,-0.65954 1.07084,-1.32226 1.45638,-2.07416 0.0665,-0.1439 0.12103,-0.29401 0.19954,-0.43174 0.3824,-0.67085 1.01472,-1.18452 1.32101,-1.90585 0,0 11.66007,-5.05694 11.66007,-5.05694 z"
       inkscape:connector-curvature="0" />
    <path
       inkscape:connector-curvature="0"
       style="fill:#ff0000;fill-opacity:1;stroke:#000000;stroke-width:3;stroke-linecap:round;stroke-linejoin:round;stroke-miterlimit:4;stroke-opacity:1;stroke-dasharray:none;stroke-dashoffset:0"
       d="m 202.17864,637.58691 c -1.18869,0.0309 -2.38548,0.34264 -3.48767,0.97898 -1.26635,0.73114 -2.2195,1.78926 -2.8452,2.99817 -0.51842,-0.11551 -1.06823,-0.15296 -1.62145,-0.15296 -4.07262,0 -7.37304,3.30041 -7.37304,7.37304 0,1.47296 0.41853,2.82564 1.16255,3.97716 -0.34884,0.38391 -0.67845,0.81736 -0.9484,1.28492 -2.03632,3.52699 -0.83476,8.02896 2.69223,10.06528 1.26752,0.73179 2.67736,1.04232 4.03835,0.97899 0.15917,0.50672 0.36585,0.98939 0.64246,1.46848 2.0363,3.527 6.53827,4.75915 10.06526,2.72283 1.26949,-0.73294 2.25026,-1.81606 2.87579,-3.02876 0.51844,0.11551 1.03765,0.18356 1.59088,0.18356 4.07262,0 7.37303,-3.30042 7.37303,-7.37304 0,-1.4636 -0.42739,-2.83036 -1.16255,-3.97716 0.35984,-0.39164 0.67141,-0.80515 0.94841,-1.28493 2.0363,-3.52699 0.83476,-8.02896 -2.69223,-10.06527 -1.27481,-0.736 -2.66996,-1.04704 -4.03836,-0.97899 -0.1594,-0.50745 -0.36584,-1.01997 -0.64246,-1.49908 -1.39996,-2.42482 -3.96251,-3.73914 -6.5776,-3.67122 z m -1.40731,14.56252 c 0.64339,0.14419 1.29415,0.21306 1.95798,0.18356 0.1953,0.62047 0.47185,1.1911 0.82602,1.74383 -0.44779,0.48721 -0.82603,1.02689 -1.13194,1.62146 -0.62666,-0.13928 -1.2803,-0.21123 -1.9274,-0.18358 -0.19157,-0.60865 -0.48148,-1.20003 -0.82602,-1.74382 0.44036,-0.47859 0.7989,-1.03903 1.10136,-1.62145 z"
       id="path3827" />
  </g>
</svg>
