<?xml version="1.0" encoding="UTF-8" standalone="no"?>
<!-- Created with Inkscape (http://www.inkscape.org/) -->

<svg
   xmlns:dc="http://purl.org/dc/elements/1.1/"
   xmlns:cc="http://creativecommons.org/ns#"
   xmlns:rdf="http://www.w3.org/1999/02/22-rdf-syntax-ns#"
   xmlns:svg="http://www.w3.org/2000/svg"
   xmlns="http://www.w3.org/2000/svg"
   xmlns:sodipodi="http://sodipodi.sourceforge.net/DTD/sodipodi-0.dtd"
   xmlns:inkscape="http://www.inkscape.org/namespaces/inkscape"
   width="100.0125"
   height="100.0125"
   id="svg2"
   version="1.1"
   inkscape:version="0.48.5 r10040"
   sodipodi:docname="logo-round.svg"
   inkscape:export-filename="/home/user/androidsoft-coloring/images/logo.png"
   inkscape:export-xdpi="90"
   inkscape:export-ydpi="90">
  <defs
     id="defs4" />
  <sodipodi:namedview
     id="base"
     pagecolor="#ffffff"
     bordercolor="#666666"
     borderopacity="1.0"
     inkscape:pageopacity="0.0"
     inkscape:pageshadow="2"
     inkscape:zoom="11.313708"
     inkscape:cx="20.89364"
     inkscape:cy="57.039177"
     inkscape:document-units="px"
     inkscape:current-layer="layer1"
     showgrid="false"
     fit-margin-top="0"
     fit-margin-left="0"
     fit-margin-right="0"
     fit-margin-bottom="0"
     inkscape:object-nodes="false"
     inkscape:snap-midpoints="false"
     inkscape:snap-object-midpoints="false"
     inkscape:window-width="1920"
     inkscape:window-height="1036"
     inkscape:window-x="0"
     inkscape:window-y="44"
     inkscape:window-maximized="0"
     inkscape:snap-smooth-nodes="false"
     inkscape:object-paths="false"
     inkscape:snap-page="true">
    <inkscape:grid
       type="xygrid"
       id="grid3952"
       empspacing="5"
       visible="true"
       enabled="true"
       snapvisiblegridlinesonly="true"
       originx="-1.6656255px"
       originy="-2.1812463px" />
  </sodipodi:namedview>
  <metadata
     id="metadata7">
    <rdf:RDF>
      <cc:Work
         rdf:about="">
        <dc:format>image/svg+xml</dc:format>
        <dc:type
           rdf:resource="http://purl.org/dc/dcmitype/StillImage" />
        <dc:title />
      </cc:Work>
    </rdf:RDF>
  </metadata>
  <g
     inkscape:label="Layer 1"
     inkscape:groupmode="layer"
     id="layer1"
     transform="translate(-174.52276,-617.31127)">
    <path
       style="fill:#f4d7ee;fill-opacity:1;stroke:#000000;stroke-width:3;stroke-linecap:butt;stroke-linejoin:round;stroke-miterlimit:4;stroke-opacity:1;stroke-dasharray:none"
       d="m 193.1315,634.04061 -1.49358,2.81398 0.12988,62.98983 25.69379,-6.51544 c 1.12697,1.86465 3.26963,2.94386 7.0566,2.94386 3.78696,0 5.95127,-1.07921 7.07824,-2.94386 l 25.69379,6.51544 0.12987,-62.98983 -1.49357,-2.81398 -31.40833,3.67982 -31.38669,-3.67982 z"
       id="path2987"
       inkscape:connector-curvature="0" />
    <path
       sodipodi:type="star"
       style="fill:#ffff00;fill-opacity:1;stroke:#000000;stroke-width:2.19601802;stroke-miterlimit:4;stroke-opacity:1;stroke-dasharray:none"
       id="path3759"
       sodipodi:sides="5"
       sodipodi:cx="60.609154"
       sodipodi:cy="24.491096"
       sodipodi:r1="14.73079"
       sodipodi:r2="4.1447506"
       sodipodi:arg1="0.78539816"
       sodipodi:arg2="1.4137167"
       inkscape:flatsided="false"
       inkscape:rounded="0"
       inkscape:randomized="0"
       d="m 71.025395,34.907338 -9.767859,-6.32252 -7.336021,9.031509 2.994639,-11.243553 -10.85643,-4.186081 11.618649,-0.626378 0.626377,-11.6186482 4.186081,10.8564302 11.243553,-2.994639 -9.031508,7.33602 z"
       transform="matrix(0.91073934,0,0,0.91073934,186.42565,632.63148)"
       inkscape:transform-center-x="0.9362855"
       inkscape:transform-center-y="-0.93628667" />
    <path
       style="fill:none;stroke:#000000;stroke-width:2;stroke-linecap:butt;stroke-linejoin:miter;stroke-miterlimit:4;stroke-opacity:1;stroke-dasharray:none"
       d="m 224.51819,637.72043 0,42.13257"
       id="path3950"
       inkscape:connector-curvature="0"
       sodipodi:nodetypes="cc" />
    <path
       sodipodi:nodetypes="cccccc"
       inkscape:connector-curvature="0"
       id="path3956"
       d="m 240.2169,676.46645 3.53004,-9.52636 -9.32511,4.19904 -13.90432,15.12516 6.07737,5.02023 z"
       style="fill:#ffff00;fill-opacity:1;stroke:#f4d7ee;stroke-width:6;stroke-linejoin:round;stroke-miterlimit:4;stroke-opacity:1;stroke-dasharray:none" />
    <path
       style="fill:#ffff00;fill-opacity:1;stroke:#000000;stroke-width:2;stroke-miterlimit:4;stroke-opacity:1;stroke-dasharray:none"
       d="m 240.2169,676.46645 3.53004,-9.52636 -9.32511,4.19904 -21.30928,23.18029 5.79507,5.32732 z"
       id="rect3775"
       inkscape:connector-curvature="0"
       sodipodi:nodetypes="cccccc" />
    <path
       inkscape:connector-curvature="0"
       id="path3958"
       d="m 216.01009,696.98308 21.54604,-23.43784"
       style="fill:none;stroke:#f4d7ee;stroke-width:2;stroke-linecap:butt;stroke-linejoin:miter;stroke-miterlimit:4;stroke-opacity:1;stroke-dasharray:none" />
    <path
       inkscape:connector-curvature="0"
       id="path3960"
       d="m 240.2169,676.46645 -5.79507,-5.32732"
       style="fill:none;stroke:#f4d7ee;stroke-width:2;stroke-linecap:butt;stroke-linejoin:miter;stroke-miterlimit:4;stroke-opacity:1;stroke-dasharray:none" />
    <path
       style="fill:none;stroke:#000000;stroke-width:2;stroke-linecap:butt;stroke-linejoin:miter;stroke-miterlimit:4;stroke-opacity:1;stroke-dasharray:none"
       d="m 216.01009,696.98308 21.54604,-23.43784"
       id="path3778"
       inkscape:connector-curvature="0" />
    <path
       style="fill:none;stroke:#000000;stroke-width:2;stroke-linecap:butt;stroke-linejoin:miter;stroke-miterlimit:4;stroke-opacity:1;stroke-dasharray:none"
       d="m 240.2169,676.46645 -5.79507,-5.32732"
       id="path3780"
       inkscape:connector-curvature="0" />
    <path
       style="fill:#00ff00;fill-opacity:1;stroke:#000000;stroke-width:2;stroke-linecap:round;stroke-linejoin:round;stroke-miterlimit:4;stroke-opacity:1;stroke-dasharray:none;stroke-dashoffset:0"
       id="path3787"
       d="m 203.15625,668.15255 c 0.4984,0.44184 1.06449,0.78739 1.62404,1.14301 0.56203,0.4514 1.17672,0.82615 1.76637,1.23921 0.56956,0.38105 1.06754,0.84916 1.56517,1.31657 0.42104,0.40134 0.73856,0.88524 1.04042,1.37787 0.25972,0.41046 0.50534,0.83036 0.79548,1.22043 0.34748,0.5005 0.53105,1.07489 0.73851,1.64017 0.24406,0.50552 0.39322,1.03829 0.52249,1.58127 0.1172,0.48998 0.17496,0.99245 0.20702,1.49456 0.0743,0.45081 0.1274,0.90306 0.16224,1.35855 0.0228,0.44185 0.0333,0.88515 0.0285,1.32766 0.036,0.49708 -0.0683,0.97483 -0.18653,1.45276 -0.10131,0.43227 -0.23935,0.85186 -0.29669,1.29408 -0.03,0.49697 -0.0817,0.99406 -0.17695,1.48312 -0.0999,0.52487 -0.27051,1.02916 -0.41536,1.54216 -0.10874,0.35522 -0.0594,0.17845 -0.1487,0.53012 0,0 -8.04701,3.87957 -8.04701,3.87957 l 0,0 c 0.0762,-0.38822 0.036,-0.19398 0.12069,-0.5827 0.0805,-0.26137 0.1317,-0.53375 0.2208,-0.79204 0.0784,-0.2272 0.18546,-0.44153 0.18981,-0.68974 0.1225,-0.45073 0.231,-0.90779 0.24969,-1.37649 0.0217,-0.47004 0.0273,-0.95617 0.22065,-1.39447 0.0896,-0.42856 0.28992,-0.83299 0.2798,-1.27411 -0.006,-0.42831 0.005,-0.85674 -0.009,-1.285 -0.0126,-0.43765 -0.0455,-0.87464 -0.1237,-1.30605 -0.0826,-0.47034 -0.0411,-0.95428 -0.15016,-1.42288 -0.10992,-0.49913 -0.22789,-1.00037 -0.43204,-1.47092 -0.20867,-0.48176 -0.33125,-1.00961 -0.66687,-1.42698 -0.29712,-0.41557 -0.5442,-0.8611 -0.80951,-1.29713 -0.2573,-0.4247 -0.56708,-0.81925 -0.90352,-1.18401 -0.45903,-0.4385 -0.94009,-0.85477 -1.45776,-1.22331 -0.59112,-0.40364 -1.2036,-0.77545 -1.78243,-1.19716 -0.55612,-0.3678 -1.07863,-0.7911 -1.67533,-1.09238 0,0 7.5503,-4.86574 7.5503,-4.86574 z"
       inkscape:connector-curvature="0" />
    <path
       style="fill:#00ff00;fill-opacity:1;stroke:#000000;stroke-width:2;stroke-linecap:round;stroke-linejoin:round;stroke-miterlimit:4;stroke-opacity:1;stroke-dasharray:none;stroke-dashoffset:0"
       id="path3791"
       d="m 210.38552,654.7212 c 0.23855,0.89153 0.48399,1.78168 0.73498,2.6699 0.23742,0.78617 0.57159,1.53705 0.85112,2.30756 0.28451,0.65775 0.43743,1.34955 0.5693,2.04959 0.11876,0.55865 0.21624,1.1231 0.25763,1.69306 0.0838,0.60165 0.13511,1.20589 0.15608,1.81273 0.0159,0.56555 0.0432,1.13126 0.0444,1.69711 0.006,0.49578 -0.005,0.99104 0.002,1.4869 -9e-4,0.50135 0.0136,1.00096 -0.0194,1.50146 -0.1056,0.55311 -0.21936,1.104 -0.27609,1.66465 -0.0375,0.42817 -0.0484,0.85745 -0.0479,1.28704 -0.006,0.43761 -0.004,0.87531 -0.003,1.31297 -0.008,0.45697 8.3e-4,0.90851 0.0471,1.36303 0.0574,0.57629 0.16034,1.14629 0.20863,1.72345 0.0214,0.68683 0.057,1.37291 0.0779,2.05975 0.0182,0.46957 0.0154,0.9395 0.0211,1.40933 -0.004,0.47049 0.004,0.94011 -0.0178,1.41024 -0.0874,0.52234 -0.23218,1.03285 -0.38165,1.54036 -0.12451,0.51613 -0.31906,1.00534 -0.53842,1.4866 -0.25363,0.46644 -0.52254,0.9248 -0.81374,1.37041 -0.23437,0.38569 -0.4279,0.79465 -0.6424,1.19168 0,0 -8.18085,3.60865 -8.18085,3.60865 l 0,0 c 0.26602,-0.36806 0.48348,-0.76565 0.66455,-1.18235 0.13758,-0.25151 0.29702,-0.47273 0.45088,-0.71225 0.33119,-0.51557 -0.10509,0.1142 0.21061,-0.44047 0.0352,-0.0619 0.0876,-0.11221 0.13135,-0.16831 0.26597,-0.41152 0.49207,-0.84269 0.64551,-1.30954 0.12425,-0.4902 0.27967,-0.9685 0.40834,-1.45638 0.15716,-0.39016 0.0315,-0.85178 0.0676,-1.26585 0.007,-0.4743 0.007,-0.94861 0.021,-1.42276 0.0114,-0.66793 0.0299,-1.33849 -0.0316,-2.00451 -0.0498,-0.56736 -0.14163,-1.12565 -0.2248,-1.68765 -0.0599,-0.48018 -0.15256,-0.95448 -0.11284,-1.44108 -9.7e-4,-0.43786 -0.002,-0.87576 -0.006,-1.3136 0.004,-0.45727 -0.003,-0.91536 0.0354,-1.37142 0.0515,-0.57806 0.12608,-1.15181 0.26121,-1.71718 0.13364,-0.43711 0.0336,-0.91757 0.065,-1.37037 0.007,-0.49622 -0.003,-0.99189 0.004,-1.48803 2.3e-4,-0.56244 0.0246,-1.12481 0.007,-1.68731 -0.0227,-0.57712 -0.0471,-1.15587 -0.1468,-1.72592 -0.0984,-0.55128 -0.0655,-1.11999 -0.19312,-1.66927 -0.12357,-0.66214 -0.21715,-1.33103 -0.51767,-1.94428 -0.23227,-0.79995 -0.54573,-1.57453 -0.78408,-2.37297 -0.26554,-0.85497 -0.43954,-1.74384 -0.83526,-2.55375 0,0 7.8323,-4.34122 7.8323,-4.34122 z"
       inkscape:connector-curvature="0" />
    <path
       style="fill:#00ff00;fill-opacity:1;stroke:#000000;stroke-width:2;stroke-linecap:round;stroke-linejoin:round;stroke-miterlimit:4;stroke-opacity:1;stroke-dasharray:none;stroke-dashoffset:0"
       id="path3789"
       d="m 220.55172,666.2144 c -0.40962,0.52171 -0.78163,1.07211 -1.17652,1.60547 -0.28279,0.55794 -0.63175,1.0702 -0.99885,1.5745 -0.38766,0.50969 -0.78447,1.01149 -1.1229,1.55543 -0.28181,0.44426 -0.58551,0.87567 -0.90292,1.29538 -0.33341,0.36327 -0.5845,0.78794 -0.87962,1.17997 -0.25756,0.42631 -0.59279,0.7966 -0.86361,1.21271 -0.28558,0.37899 -0.49473,0.79973 -0.72993,1.20929 -0.27437,0.34273 -0.48786,0.71839 -0.65694,1.12209 -0.22421,0.39488 -0.35411,0.82464 -0.46342,1.26231 -0.14091,0.45738 -0.33622,0.89512 -0.47416,1.35297 -0.12072,0.41792 -0.12433,0.85319 -0.20439,1.27866 -0.0698,0.41797 -0.10163,0.84091 -0.11347,1.2641 -0.0145,0.4694 -0.0941,0.93566 -0.14749,1.40254 -0.0956,0.46096 -0.29044,0.88993 -0.41378,1.34215 -0.15798,0.38876 -0.23515,0.79362 -0.28961,1.20733 -0.008,0.44873 -0.0597,0.88991 -0.1171,1.33441 -0.008,0.0671 -0.0151,0.1342 -0.0227,0.2013 0,0 -8.03642,3.99445 -8.03642,3.99445 l 0,0 c 0.006,-0.073 0.0129,-0.14599 0.0193,-0.21898 0.048,-0.43501 0.14922,-0.8595 0.1377,-1.29802 0.01,-0.4729 0.0512,-0.95609 0.1962,-1.40802 0.16782,-0.42245 0.24733,-0.8746 0.4388,-1.2903 0.0278,-0.0528 0.0676,-0.10088 0.0834,-0.15845 0.0193,-0.0707 0.0123,-0.14604 0.0197,-0.21894 0.0283,-0.27984 0.0575,-0.56288 0.13006,-0.83511 0.008,-0.45625 0.008,-0.91317 0.067,-1.36665 0.024,-0.21322 0.0867,-0.41512 0.11499,-0.62556 0.0322,-0.23936 -0.004,-0.48733 0.0575,-0.7241 0.0946,-0.50142 0.25623,-0.97063 0.45418,-1.4401 0.20246,-0.422 0.19283,-0.91197 0.39236,-1.33933 0.22339,-0.41458 0.34083,-0.882 0.61851,-1.26834 0.32197,-0.3677 0.45565,-0.79466 0.74422,-1.18202 0.137,-0.21156 0.24385,-0.44563 0.39483,-0.64756 0.14855,-0.19868 0.33697,-0.36925 0.46157,-0.58685 0.26857,-0.42879 0.57825,-0.83127 0.85756,-1.25388 0.34408,-0.38514 0.63114,-0.80642 0.9507,-1.21104 0.17875,-0.26051 0.32091,-0.54512 0.49798,-0.80472 0.19196,-0.28142 0.45194,-0.51848 0.62103,-0.81766 0.37098,-0.46665 0.75766,-0.93555 1.03045,-1.46753 0.0471,-0.10183 0.0856,-0.20803 0.14118,-0.30549 0.27056,-0.47464 0.71795,-0.83808 0.93466,-1.34845 0,0 8.2499,-3.57796 8.2499,-3.57796 z"
       inkscape:connector-curvature="0" />
    <path
       inkscape:connector-curvature="0"
       style="fill:#ff0000;fill-opacity:1;stroke:#000000;stroke-width:2;stroke-linecap:round;stroke-linejoin:round;stroke-miterlimit:4;stroke-opacity:1;stroke-dasharray:none;stroke-dashoffset:0"
       d="m 208.89221,644.58045 c -0.84103,0.0218 -1.6878,0.24243 -2.46764,0.69267 -0.89599,0.5173 -1.57038,1.26596 -2.01308,2.1213 -0.3668,-0.0817 -0.75581,-0.10823 -1.14723,-0.10823 -2.88152,0 -5.21669,2.33517 -5.21669,5.21669 0,1.04217 0.29614,1.99924 0.82255,2.81398 -0.24682,0.27163 -0.48003,0.57831 -0.67103,0.90913 -1.44076,2.49547 -0.59062,5.68077 1.90485,7.12153 0.89681,0.51777 1.89433,0.73748 2.85727,0.69267 0.11263,0.35852 0.25885,0.70002 0.45457,1.03901 1.44076,2.49547 4.62606,3.36725 7.12153,1.92649 0.89821,-0.51858 1.59213,-1.28493 2.03472,-2.14295 0.36681,0.0817 0.73417,0.12988 1.12559,0.12988 2.88153,0 5.21669,-2.33517 5.21669,-5.21669 0,-1.03555 -0.3024,-2.00258 -0.82255,-2.81398 0.2546,-0.2771 0.47504,-0.56967 0.67103,-0.90913 1.44076,-2.49547 0.59062,-5.68077 -1.90485,-7.12153 -0.90196,-0.52075 -1.88908,-0.74081 -2.85727,-0.69267 -0.11279,-0.35904 -0.25885,-0.72167 -0.45457,-1.06066 -0.99052,-1.71563 -2.80361,-2.64557 -4.65389,-2.59751 z m -0.99571,10.30349 c 0.45521,0.10202 0.91566,0.15074 1.38534,0.12987 0.13818,0.43901 0.33385,0.84275 0.58444,1.23382 -0.31683,0.34472 -0.58445,0.72656 -0.8009,1.14724 -0.44337,-0.0985 -0.90584,-0.14944 -1.3637,-0.12987 -0.13554,-0.43065 -0.34066,-0.84907 -0.58444,-1.23383 0.31157,-0.33861 0.56526,-0.73515 0.77926,-1.14723 z"
       id="path3827" />
  </g>
</svg>
